<?xml version="1.0" encoding="UTF-8" standalone="no"?>
<svg width="21px" height="21px" viewBox="0 0 21 21" version="1.1" xmlns="http://www.w3.org/2000/svg" xmlns:xlink="http://www.w3.org/1999/xlink" xmlns:sketch="http://www.bohemiancoding.com/sketch/ns">
    <title>Slice 1</title>
    <description>Created with Sketch (http://www.bohemiancoding.com/sketch)</description>
    <defs>
        <linearGradient x1="50%" y1="0%" x2="50%" y2="100%" id="linearGradient-1">
            <stop stop-color="#FFFFFF" offset="0%"></stop>
            <stop stop-color="#A3A3A3" offset="100%"></stop>
        </linearGradient>
        <filter x="-20%" y="-20%" width="140%" height="140%" filterUnits="objectBoundingBox" id="filter-2">
            <feOffset dx="0" dy="2" in="SourceAlpha" result="shadowOffsetOuter1"></feOffset>
            <feGaussianBlur stdDeviation="1" in="shadowOffsetOuter1" result="shadowBlurOuter1"></feGaussianBlur>
            <feColorMatrix values="0 0 0 0 0   0 0 0 0 0   0 0 0 0 0  0 0 0 0.7 0" in="shadowBlurOuter1" type="matrix" result="shadowMatrixOuter1"></feColorMatrix>
            <feMerge>
                <feMergeNode in="shadowMatrixOuter1"></feMergeNode>
                <feMergeNode in="SourceGraphic"></feMergeNode>
            </feMerge>
        </filter>
    </defs>
    <g id="Page-1" stroke="none" stroke-width="1" fill="none" fill-rule="evenodd" sketch:type="MSPage">
        <path d="M12.8330253,12.8373548 L17.0010377,17.0236702 L18.9833746,15.0324707 L14.8025789,10.8802593 C15.5471182,9.76796554 15.9813233,8.43038684 15.9813233,6.99139404 C15.9813233,3.1254006 12.8473168,-0.00860595703 8.98132332,-0.00860595703 C5.11532988,-0.00860595703 1.98132332,3.1254006 1.98132332,6.99139404 C1.98132332,10.8573875 5.11532988,13.991394 8.98132332,13.991394 C10.4043258,13.991394 11.7281555,13.5667852 12.8330253,12.8373548 L12.8330253,12.8373548 Z M8.98132332,10.991394 C11.1904624,10.991394 12.9813233,9.20053315 12.9813233,6.99139404 C12.9813233,4.78225493 11.1904624,2.99139404 8.98132332,2.99139404 C6.77218422,2.99139404 4.98132332,4.78225493 4.98132332,6.99139404 C4.98132332,9.20053315 6.77218422,10.991394 8.98132332,10.991394 Z" id="Path-7-copy-3" fill="url(#linearGradient-1)" filter="url(#filter-2)" sketch:type="MSShapeGroup"></path>
    </g>
</svg>